<?xml version="1.0" encoding="utf-8"?>
<!-- Generator: Adobe Illustrator 25.0.1, SVG Export Plug-In . SVG Version: 6.00 Build 0)  -->
<svg version="1.0" id="Layer_1" xmlns="http://www.w3.org/2000/svg" xmlns:xlink="http://www.w3.org/1999/xlink" x="0px" y="0px"
	 viewBox="0 0 322 238" style="enable-background:new 0 0 322 238;" xml:space="preserve">
<style type="text/css">
	.st0{fill:#EE3124;}
	.st1{fill:none;}
</style>
<path d="M70.8,144.6h2.1v10.5c0,3.6,2.1,5,4.8,5s4.8-1.5,4.8-4.9v-10.6h2.1v10.6c0,4.4-3.1,6.8-6.9,6.8s-6.9-1.8-6.9-6.5V144.6z"/>
<path d="M92,144.6h2.1l9.9,13.9v-13.9h2.1v17.1H104L94,148v13.8h-2V144.6L92,144.6z"/>
<path d="M113.7,144.6h2.1v17.1h-2.1V144.6z"/>
<path d="M121.2,144.6h2.2l5,14.1l5-14.1h2.1l-6.2,17.2h-2L121.2,144.6z"/>
<path d="M141,144.6h10.1v1.8h-8v5.7h6.3v1.8h-6.3v6.1h7.9v1.8h-10V144.6z"/>
<path d="M157.4,144.6h4.5c4.4,0,6.1,2.3,6.1,4.6c-0.1,2.2-1.5,4-3.5,4.8l5.2,7.6h-2.5l-4.9-7.2h-2.7v7.2h-2.1V144.6z M162.2,152.7
	c1.8,0.1,3.4-1.3,3.5-3.2c0,0,0,0,0-0.1c0-1.6-1.1-3.1-4.2-3.1h-2v6.3H162.2z"/>
<path d="M174.5,158.6c1.3,0.9,2.8,1.5,4.4,1.5c1.9,0,3.4-0.9,3.4-2.5c0-3.9-8.1-3.7-8.1-8.9c0-2.5,2-4.4,5.6-4.4
	c1.5,0,3,0.3,4.4,0.8l-0.5,2c-1.2-0.5-2.5-0.8-3.9-0.9c-1.9,0-3.4,0.8-3.4,2.4c0,4,8.1,3.5,8.1,9c0,3-2.5,4.5-5.6,4.5
	c-1.7,0-3.5-0.5-4.9-1.4L174.5,158.6z"/>
<path d="M190.8,144.6h2.1v17.1h-2.1V144.6z"/>
<path d="M204.5,146.4h-6.1v-1.8h14.3v1.8h-6.1v15.3h-2.1V146.4z"/>
<path d="M222.1,154.3l-6.1-9.7h2.5l4.7,7.6l4.8-7.6h2.3l-6.1,9.6v7.4H222L222.1,154.3L222.1,154.3z"/>
<path d="M75.8,173.4h-7.3v-3.6h18.8v3.6H80v18.5h-4.2V173.4z"/>
<path d="M97.9,169.6h4.1l8.3,22.2H106l-1.8-5h-8.6l-1.8,5h-4.2L97.9,169.6z M96.9,183.4h6l-3-8.3L96.9,183.4z"/>
<path d="M116.3,186.6c1.6,1.2,3.5,1.9,5.4,1.9c1.9,0,3.5-0.8,3.5-2.3c0-4-9.8-3.8-9.8-10.5c0-3.4,2.8-6.3,7.6-6.3c2,0,4.1,0.4,6,1
	l-0.7,3.8c-1.7-0.7-3.4-1.1-5.2-1.1c-1.9,0-3.4,0.8-3.4,2.2c0,4,9.8,3.6,9.8,10.6c0,4-3.4,6.4-7.7,6.4c-2.4,0-4.7-0.6-6.8-1.9
	L116.3,186.6z"/>
<path d="M137.4,169.8h6.1l5.3,15.3l5.3-15.3h6l0.8,22.1h-4.1l-0.7-17.3l-6.2,17.3h-2.8l-6.1-17.3l-0.6,17.3h-4.1L137.4,169.8z"/>
<path d="M175.1,169.6h4.1l8.3,22.2h-4.3l-1.8-5h-8.6l-1.8,5h-4.2L175.1,169.6z M174.1,183.4h6l-3-8.3L174.1,183.4z"/>
<path d="M193.7,169.8h4.3l10.8,15.6v-15.6h4.2v22.1h-4.3l-10.7-15.4v15.5h-4.2L193.7,169.8z"/>
<path d="M221.7,169.8h4.3v22.1h-4.3L221.7,169.8z"/>
<path d="M240.6,169.6h4.1l8.4,22.2h-4.3l-1.8-5h-8.5l-1.8,5h-4.3L240.6,169.6z M239.5,183.4h6l-3-8.3L239.5,183.4z"/>
<path d="M239.9,149.4c1.9,0,3.5,1.5,3.6,3.5c0,0.1,0,0.2,0,0.3c0,2.4-1.9,6-5.2,6c-2.4,0-3.6-1.9-3.6-3.9
	C234.7,152.4,236.9,149.4,239.9,149.4z M238.3,157.8c2.1,0,3.5-2.5,3.5-4.6c0-1.4-0.6-2.5-2-2.5c-1.9,0-3.5,1.9-3.5,4.4
	C236.3,156.7,236.9,157.8,238.3,157.8L238.3,157.8z"/>
<path d="M245.3,150.1l1.5-0.5l0.1-0.4c0.3-2.4,1.3-5.2,4.3-5.2c0.8,0,1.6,0.2,2.3,0.6l-0.7,1.3c-0.5-0.3-1-0.4-1.6-0.4
	c-2.1,0-2.6,2.1-2.9,4.4h2.5l-0.3,1.3h-2.4c-0.6,5-1.3,11.8-5,12.9l-0.6-1.1c2.3-0.8,3.3-4.9,3.8-8.6l0.4-3.1h-1.3L245.3,150.1
	L245.3,150.1z"/>
<path class="st0" d="M139.2,56.6c-0.5,0-1.5,0.1-2.2,0.1c-0.4,0-0.9-0.1-1.3-0.3c-0.2-0.1-0.3,0.1-0.4,0.3l-0.1,1.5
	c0,0.3,0.3,0.6,0.6,0.7c1.1,0.3,2.5,0.1,4.3-1.8C140.6,56.7,139.7,56.6,139.2,56.6"/>
<path class="st0" d="M210.8,65.7c0.1-0.1,0.1-0.1,0-0.1c-3.1-3.3-17-1.7-22.3-1c-6.7,0.7-12.1,1.5-13.8,1.6
	c-1.7,0.1-5.5,0.3-7.6-0.7c-2.4-1.2-3.1-2.1-3.3-3.3c-0.5-3.5,2.5-3.6,3.5-3.6c0.9,0,2.3,0,2.3,1.3c-0.1,0.9-0.9,1.3-1.7,1.7
	c-0.1,0-0.1,0.1,0,0.1c1.1,1,2.6,1.6,4.1,1.6c2.3-0.1,3.8-0.6,4.8-4.3c0-0.1,0.1-0.1,0.1-0.1c2.5,1,5.1,1.8,7.7,2.5
	c2.1,0.5,5.2,0.5,7.3-0.7s5.3-3.1,8.7-2.9c3.1,0.1,6.6,0.2,8.7,1.4c0.1,0.1,0.1,0,0.1-0.1c-0.4-1.4-3.2-9.1-12.5-7l0,0
	c-2.3,0.7-2.7,1.2-4.5,1.5c-3.3,0.5-6.8,0.4-10.1-0.5c-0.1,0-0.1-0.1,0-0.2c1.2-0.7,7.4-3.9,14.3-2.7c0.1,0,0.1-0.1,0.1-0.1
	c-0.7-0.9-3.7-4.7-8.9-4.5c-5.9,0.2-7.3,1.5-10.9,3.5c-3.4,1.8-4.9,3-10.7,2.7c-3.6-0.2-7.5,2.7-8.3,4.9
	c-3.4,9.9,3.9,13.8,10.4,14.9c6,0.9,26.8-3.3,31.7-1.1c2,0.8,3.4,2.7,3.5,4.9c-0.1,0.9-1,2.3-3.9,2.9c-4.9,0.9-9.9,0.7-14.7-0.4l0,0
	c-0.1,0-5-2.8-8.9-3c-2.9-0.2-10.2,1.4-12.5,1.5c-1.6,0-4.7,0.2-6.4,0.3c-0.1-4.9-1.6-9.8-4.2-13.9c-0.3-0.4-0.8-0.5-1.2-0.3
	c0,0-0.5,0.3-1.5,0.7c1.1-2.1,0.8-4.9-0.2-5.9c-0.1,0-0.1-0.1,0-0.2c0,0,0,0,0,0c0.5-0.7,0.8-1.5,0.9-2.3c0.1-1.7-0.3-3.9-4.4-6.2
	c-0.3-0.1-0.6,0-0.7,0.3c-0.3,0.9-1.1,2.4-1.8,2.5c-2.5,0.3-5,0.9-7.4,1.8c-1.3,0.6-2.5,1.6-3.3,2.7c-0.6,1-1.6,1.7-2.8,1.9
	c-1.2,0.3-1.7,0-2.1,0.4c-0.4,0.4-0.6,0.9-0.5,1.5c0.4,1.2,1,2.4,1.6,3.6c0.4,0.8,1,1.4,1.7,1.9h-1.6c-0.5,0-1.4-0.1-1.4-0.1
	c-0.2,0-0.4,0.1-0.5,0.3c-0.1,0.2,0,0.4,0.1,0.5c0.5,0.5,1,1.1,2.9,1.1h1.7c-0.2,0.3-0.5,0.5-0.6,0.7c-0.7,0.8-0.9,2-0.5,2.9
	c0.3,0.7,0.8,1.4,1.5,1.8c1.1-0.7,3.4-1.8,4.3-1.1c-0.2,0.2-0.3,0.4-0.5,0.6c-1.9,2.1-4.5,4.8-5.9,8.1c-1.8-0.7-6.1-2.3-8.1-4.3
	c-0.8-1-1.1-2.3-0.8-3.5c0.5-1.3,0.4-2.7-0.2-3.9c-0.7-1.2-1.7-2.3-2.9-3.2c0.3-1.9,0.7-4.5,0.8-5.3c1.8,0.2,3.5-0.3,4.1-1.1
	c0.6-0.9,0.7-2.6,1.1-3s0.9-0.3,1.3-0.3c1,0,2-0.3,2.8-1c1.1-1,1.9-2.4,2.8-2.5c1-0.1,2-0.5,2.7-1.1c0.8-0.7,2.5-2.7,5.5-2.7
	c0.9,0,1.3-0.9-0.3-1.2c-1.9-0.4-3.9-0.2-5.8,0.5c-1,0.4-2.2,0.4-3.2-0.1c-1.3-0.3-2.7-0.2-3.9,0.4c-1.7,0.6-3.6,0.8-5.3,0.4
	c-2.1-0.8-4.3-0.9-6.5-0.3c-2.1,0.4-3.9,1.8-4.7,3.8c-0.5,1.1-0.5,2.4,0,3.5c0.2,0.4,0.4,0.7,0.6,1c-0.1,1.5-0.3,6.6-0.3,7.2
	c-0.3,0.4-0.4,0.8-0.5,1.3c-0.1,0.2-0.1,0.5-0.1,0.7h-0.3c-0.6,0.1-1.1,0.3-1.5,0.7l-0.1,0.2l-0.1,0.2c-0.1,0.1-0.2,0.3-0.3,0.4
	l-0.2,0.4c-0.1,0.1-0.1,0.3-0.1,0.5c-0.1,0.4-0.1,0.7,0,1.1c0.1,0.3,0.2,0.7,0.4,0.9c0.2,0.4,0.6,0.7,0.9,1
	c-0.1,0.1-0.3,0.3-0.4,0.5c-0.3,0.4-0.4,0.9-0.5,1.4c-0.1,0.5,0.1,1.1,0.4,1.5c0.2,0.4,0.5,0.7,0.9,0.9c0.3,0.2,0.7,0.5,0.9,0.7
	c-0.7,20.9-0.8,21.7,1.3,22.3h0.3c2.5,0,3.2-5.6,4.7-15.3c0.2-1.4,0.3-2.7,0.5-3.7c3.1,5.8,7.1,11.1,11.8,15.7
	c0.2,0.2,0.6,0.2,0.8-0.1c0.1-0.1,0.1-0.2,0.1-0.3c0.3-1.4,0.7-2.8,1.4-4.1c0.5,1,1,1.9,1.6,2.8c0.9,1.2,1.9,2.3,3,3.3l0,0
	c-1.8,1.7-6.3,5.7-10.8,7.1c-0.1,0-0.1,0-0.1-0.1c-0.4-1.1-1.1-2.2-1.9-3.1c-1.1-1-2.1-2.1-6.3-1.2c-0.8,0.2-1.6,0.5-2.4,0.8
	c-0.3,0.1-0.4,0.4-0.3,0.7c0.1,0.2,0.2,0.3,0.4,0.3c0.4,0,0.8,0,1.2,0.1c0,0,0.1,0,0.1,0c0,0,0,0,0,0c-0.1,0.6,0,1.3,0.3,1.8v0.1
	c-2.2,1.8-3.3,4.6-2.9,7.5c0,0.2,0.2,0.3,0.3,0.3c0.1,0,0.2-0.1,0.3-0.2c0.1-0.5,0.3-0.9,0.5-1.3c0.3,0.4,1.3,2.2,3,2.5
	c0,0,0.1,0,0.1,0c0,0,0,0,0,0c-0.2,2.1,0.4,4.2,1.7,5.9c0.3,0.3,0.7,0.1,0.7-0.3c0-0.4,0-0.7,0-1.1c0-0.1,0.1-0.1,0.1-0.1
	c0.7,0.4,1.6,0.4,2.2-0.1c1.3-0.9,2.4-2.1,3.1-3.5c0-0.1,0.1-0.1,0.1,0c0.8,1,2,1.1,3.4,1.1c2.3,0,4.3-1.3,4.3-3.5v-0.1
	c5.3,0.5,8.5-0.7,12.5-3.3c3.7-2.3,5.6-4,5.3-6.1c-0.1-1-0.5-1.9-1.2-2.6c4.5-0.1,8.6-2.5,10.9-6.4c0.1-0.1,0.2,0,0.1,0.1
	c-0.4,1.8-0.5,5.2,0.5,7c1.5,2.7,4.9,6.7,5.5,8.4s0.5,5.9-1.4,8.3c-1.9,2.3-2.3,2.7-3.7,3.5h-0.1c-1.5-1.4-3.3-2.4-5.3-2.9
	c-2.5-0.4-10.5-2.2-10.9,6.5c0,0.2,0.2,0.4,0.4,0.5c0.1,0,0.2,0,0.3-0.1c0.5-0.7,1.1-1.2,1.7-1.7h0.1c0.5,0.3,1,0.5,1.5,0.7
	c0.1,0,0.1,0.1,0.1,0.1c-1.3,1.7-2.6,4.5-0.1,7.6c0.1,0.1,0.3,0.2,0.5,0.1c0.1-0.1,0.1-0.2,0.1-0.3c-0.1-0.5-0.1-1.1,0-1.6
	c0-0.1,0.1-0.1,0.1-0.1c0.9,1.3,3,1.8,5,0.9c0.1,0,0.1,0,0.1,0.1c0.1,0.5,0.6,2.8,4,5.3c0.3,0.3,0.8-0.1,0.7-0.5
	c-0.2-0.5-0.4-1.1-0.4-1.7c0,0,0-0.1,0-0.1c0,0,0,0,0,0c1.7,0,3.4-1,4.1-2.5c0.5-1.1,0.9-2.3,1.1-3.5c0,0,0-0.1,0.1-0.1l3-1.9
	c0.1,0,0.1,0,0.1,0.1c0.2,0.5,0.5,1.2,1,1.3c0.1,0,0.1,0.1,0.1,0.1c-0.2,0.7-0.4,1.4-0.7,2.1c-0.1,0.3,0.2,0.5,0.5,0.4
	c1.9-1.4,5.9-5.1,4.1-8.9c6.3-5,10.3-11.1,10.9-14.9c0.1-0.5-0.3-0.9-0.7-1c0,0,0,0-0.1,0c-4.1-0.1-6.3-1.2-5.9-4.9
	c0-0.1,0.1-0.1,0.1-0.1c1,0.3,10.1,2.7,16.3,0.9c0.4-0.1,0.8,0.1,0.9,0.5c0,0,0,0,0,0c1,1.8,1.8,3.7,2.4,5.7
	c0.4,1.1,0.4,2.2,0.1,3.3l0,0c-0.8,0.8-1.7,1.5-2.7,2.1c-4.3,2.8-3.9,6.4,0.1,10.5c0.1,0.1,0.3,0.1,0.4,0c0.1-0.1,0.1-0.2,0.1-0.3
	c-0.2-0.8-0.4-1.6-0.5-2.5c0-0.1,0.1-0.1,0.1-0.1c0.5,0.1,1,0,1.4-0.2c0.1,0,0.1,0,0.1,0.1c0.1,0.5,0.5,2.7,3.6,4.1
	c0.1,0,0.2,0,0.3-0.1c0,0,0-0.1,0-0.1c-0.3-0.7-0.6-1.4-0.7-2.2c0,0,0-0.1,0.1-0.1c0.7,0,3.1,0,3.7-3.3c0-0.1,0.1-0.1,0.1-0.1
	c0.6,0.2,3.9,1.3,5.9-1.3c0.1-0.1,0-0.3-0.1-0.3c-0.6,0.2-1.3,0.2-1.9,0.1c-0.1,0-0.1-0.1-0.1-0.1c0.3-0.5,1.9-3.7-1.9-7
	c0,0,0-0.1,0-0.1c0,0,0,0,0,0c2.5-7.6,1.9-16-0.8-21c-0.2-0.4-0.6-0.6-1.1-0.5c-4.7,1.7-12.5,2.4-13.5-1.8c0-0.1,0.1-0.1,0.1-0.1
	c2.2,0.4,4.4,0.4,6.6,0.3c2.5-0.2,5-0.6,7.5-1.3c2.8-0.9,5.1-1.9,6.1-4.8c0.9-3.1,0.3-6.5-1.5-9.1v-0.1L210.8,65.7z M112.9,57.8
	c1.4,0.8,3,1.4,4.6,1.7c0,0-0.5,4.3-0.6,4.3c-0.2-0.1-0.4-0.2-0.7-0.3c-0.6-0.3-1.2-0.6-1.8-0.9c-0.3-0.2-0.7-0.3-1.1-0.3
	c-0.2-0.1-0.4-0.1-0.7-0.1L112.9,57.8z M112.2,52.5c0.5-2.3,2.8-2.9,3.7-3.1c1.8-0.5,3.7-0.4,5.4,0.3c1.8,0.4,3.6,0.3,5.3-0.3
	c1.3-0.5,2.3-0.8,3-0.5c0.7,0.3,1.4,0.4,2.2,0.4c0.9-0.1,1.7-0.2,2.6-0.5c-0.8,0.7-1.7,1.1-2.7,1.3c-1.6-0.1-2.7,1.6-3.2,2.5
	c-0.5,0.9-1.3,1.4-3.3,1.5c-2.5,0-2.7,2-2.9,2.9s-1.1,1.3-2.9,1.1c-1.8-0.2-3.6-0.7-5.2-1.5C112.7,55.8,111.9,54.1,112.2,52.5
	 M109.1,67.6c0.4-1.2,1.9-0.9,2.7-0.7c0.2,0.1,0.3-0.1,0.3-0.3c-0.3-0.6-0.4-1.3-0.1-1.9c0.6-0.9,2.5,0.1,3.3,0.5
	c0.9,0.4,2.8,1.5,2.3,2.6c-0.2,0.6-0.7,0.9-1.3,0.9c-0.1,0-0.2,0.1-0.2,0.2c0,0.1,0,0.1,0.1,0.2c0.5,0.5,1.2,1.5,0.9,2.3
	c-0.3,0.9-1.6,0.7-2.3,0.7c-0.2,0-0.3,0.3-0.2,0.4c0.6,0.6,0.9,1.4,0.8,2.2c-0.3,1.3-2.4,0.4-3.5-0.1s-2.4-1.4-2.2-2.3
	c0.1-0.6,0.9-1,1.5-1.2c0.2-0.1,0.2-0.3,0.1-0.5C110.3,70,108.7,68.8,109.1,67.6 M111.8,95.4c-0.4,0-0.3-2.9-0.2-7.3
	c0.1-4.7,0.5-10.3,0.5-11.5c0.5,0.2,1,0.4,1.5,0.5c0.4,0.1,0.7,0.1,1.1,0.1h0.2c-0.3,1.3-0.5,3-0.7,5c-0.2,1.5-0.6,3.8-0.9,6
	C112.8,91.9,112.1,95.4,111.8,95.4 M133.7,91.7c-0.7-1-1.2-2-1.7-3.1c-0.1-0.4-0.3-1-0.5-1.5c-0.1-0.2-0.3-0.3-0.4-0.1
	c-0.6,0.6-1.1,1.3-1.5,2.1c0,0.1-0.1,0.1-0.1,0.1c-0.5,0.9-0.9,1.9-1.1,2.9c-0.9-0.8-1.8-1.7-2.6-2.6c0-0.1,0.1-0.3,0.1-0.4
	s0.1-0.5,0.1-0.8l0.4-1.6l0,0c0-0.1,0-0.2-0.1-0.3c-0.1-0.1-0.3-0.1-0.4,0c-0.4,0.4-0.7,0.9-1.1,1.4c0,0.1-0.1,0.2-0.2,0.3
	c-0.5-0.6-0.9-1.3-1.4-1.9c0-0.1,0-0.2,0.1-0.3c0-0.2,0.1-0.5,0.1-0.7c0.1-0.5,0.2-1,0.4-1.5l0,0c0-0.1,0-0.2-0.1-0.3
	c-0.1-0.1-0.3-0.1-0.4,0c-0.4,0.4-0.8,0.9-1.1,1.3c0,0-0.1,0.1-0.1,0.1c-2.6-3.8-4.8-7.7-5.5-8.9c0.1-0.1,0.1-0.2,0.1-0.3
	c0.1-0.5,0.1-1-0.1-1.4c0-0.1-0.1-0.1-0.1-0.1c0-0.1,0.3-0.1,0.5-0.1c0.4-0.1,0.7-0.4,1-0.7c0.2-0.3,0.4-0.7,0.5-1.1
	c0.1-0.4,0.1-0.9,0-1.3c-0.1-0.3-0.2-0.7-0.5-0.9c0.4-0.3,0.7-0.6,0.9-1c0.1-0.1,0.1-0.2,0.1-0.3c0-0.1,0.1-0.2,0.1-0.3
	c0.4,0.3,0.6,0.6,0.8,1.1c0.7,1.4-0.1,3.6-0.2,4.5c-0.1,1,0.2,2,0.9,2.9c0.6,0.8,5.7,3.7,10.5,5.7l0.7,0.3c1.1-3.7,4-6.9,6.1-9.1
	l1.3-1.5l0.5-0.6l-0.7-0.7c-0.6-0.8-1.5-1.2-2.5-1.3c-1.1,0.1-2.1,0.4-3.1,0.8c-1-1.1,0.5-2.4,1.2-3.1c0.8,0,1.6,0,2.5-0.1
	c0.2,0,0.5,0,0.7-0.1c0.2,0,0.4-0.2,0.4-0.5c0,0,0-0.1,0-0.1c-0.3-0.5-0.6-1-0.9-1.5c-0.5-0.6-1.7-0.1-3.6-0.3c-2.8-0.3-3.9-5-3.9-5
	c1.2,0.1,2.3-0.2,3.3-0.9c1.2-0.7,1.7-2.5,3.2-3.5s4.7-1.3,7.1-1.5c2.4-0.2,2.8-1.7,3.3-2.8c0-0.1,0.2-0.2,0.3-0.2c0,0,0,0,0,0
	c2.9,1.9,2.4,4.3,1.7,5.3c-0.1,0.2-0.4,0.5-0.6,0.8c-0.1,0.1-0.1,0.2,0,0.2c0,0,0,0,0,0c0.5,0.3,0.9,0.8,1,1.3
	c0.4,1.2,0.3,2.5-0.2,3.7c-0.6,1-1.6,1.8-2.7,2.1c-0.1,0.1-0.4,0.1-0.7,0.3c-0.7,0.3-0.5,1.4,0.2,1.4l0,0c0.4,0,0.5,0.1,0.7,0l0,0
	c1.9,0,3.8-0.5,5.5-1.4c1.4,2.6,2.4,5.5,3.1,8.4c-0.3-0.3-0.6-0.5-0.9-0.7c-0.7-0.5-1.4-0.9-2.1-1.3c-0.7-0.3-1.5-0.5-2.3-0.6
	c-0.2,0-0.4,0.1-0.5,0.3c-0.1,0.2,0,0.5,0.2,0.7c0,0,0,0,0,0l0,0c0.7,0.3,1.3,0.6,1.9,1c0.6,0.4,1.2,0.8,1.7,1.2
	c0.5,0.5,1,1,1.4,1.5c0.2,0.3,0.4,0.6,0.6,0.9l0.3,0.5v0.1c0,2.1-0.3,4.1-1.1,6.1c-0.1,0.1-0.1,0.2-0.1,0.3l-0.2-0.6
	c-0.3-1-0.8-1.8-1.4-2.7c-0.6-0.8-1.3-1.5-2.2-2.1c-0.8-0.5-1.7-0.8-2.6-1c-0.2-0.1-0.5,0.1-0.5,0.3c0,0,0,0,0,0
	c-0.1,0.2,0,0.5,0.2,0.7c0,0,0,0,0,0l0,0c0.8,0.3,1.5,0.8,2.2,1.3c0.7,0.5,1.2,1.2,1.7,1.9c0.4,0.7,0.8,1.5,1.1,2.3
	c0.1,0.4,0.3,0.9,0.4,1.3c0.1,0.2,0.1,0.4,0.1,0.7c0,0.1,0.1,0.2,0.1,0.3c-1,1.4-2.1,2.8-3.3,4c0-0.2-0.1-0.3-0.1-0.5
	s-0.1-0.5-0.1-0.8c-0.2-1.1-0.6-2.1-1.1-3.1c-0.5-1-1.2-1.9-2.1-2.6c-0.8-0.7-1.7-1.3-2.7-1.6c-0.2-0.1-0.5,0-0.6,0.2
	c-0.1,0.2-0.1,0.5,0.2,0.6c0,0,0,0,0,0l0,0c0.8,0.5,1.6,1.1,2.2,1.8c0.6,0.7,1.1,1.5,1.5,2.3c0.4,0.9,0.7,1.8,0.9,2.7
	c0.1,0.3,0.1,0.5,0.1,0.7c0.1,0.2,0.1,0.5,0.1,0.7c0,0.3,0.1,0.5,0.1,0.7c0,0.1,0.1,0.2,0.1,0.3c-1.1,0.9-2.2,1.9-3.4,2.7
	c-0.1,0-0.1-0.1-0.2-0.1l-0.6-0.4l-0.6-0.4c-0.2-0.1-0.4-0.3-0.5-0.5c-0.7-0.6-1.4-1.3-1.9-2c-0.6-0.7-1-1.6-1.3-2.5
	c-0.3-0.9-0.4-1.9-0.4-2.9l0,0c0-0.3-0.1-0.5-0.4-0.5c-0.3,0-0.5,0.1-0.6,0.4c-0.2,1.1-0.2,2.2-0.1,3.3c0.2,1.1,0.6,2.2,1.2,3.2
	c0.6,1,1.3,1.8,2.1,2.6c0.2,0.2,0.4,0.4,0.6,0.5c0.2,0.1,0.3,0.3,0.5,0.5c-1.3,0.8-2.8,1.4-4.3,1.9l-0.2-0.2
	c-0.5-0.5-1.1-0.9-1.5-1.3C135.7,94.2,134.7,93,133.7,91.7 M181.1,104.4c-0.7,1.8-1.5,3.4-2.6,5l0,0c-0.3-0.4-0.6-0.8-0.9-1.2
	c-0.3-0.3-0.7-0.6-1.1-0.9c-0.4-0.3-0.8-0.5-1.2-0.7c-0.2-0.1-0.4,0-0.5,0.1c-0.1,0.2-0.1,0.5,0.1,0.7l0,0c0.3,0.3,0.6,0.6,0.9,0.9
	c0.3,0.3,0.5,0.7,0.7,1c0.2,0.3,0.4,0.7,0.5,1.1c0.1,0.3,0.2,0.7,0.2,1.1c-0.6,0.7-1.3,1.5-1.9,2.2c-0.1-0.1-0.1-0.2-0.1-0.3
	c-0.3-0.4-0.5-0.9-0.9-1.3c-0.3-0.4-0.7-0.7-1.1-1c-0.4-0.3-0.7-0.5-1.2-0.8c-0.2-0.1-0.4,0-0.5,0.1c-0.2,0.2-0.2,0.5,0,0.6
	c0,0,0,0,0,0l0,0c0.3,0.3,0.6,0.6,0.8,0.9c0.2,0.3,0.5,0.7,0.7,1c0.2,0.3,0.3,0.7,0.4,1.1c0.1,0.3,0.1,0.7,0.1,1.1l0,0v0.1
	c-1,1-2.1,1.9-2.9,2.6c0,0,0,0.1,0,0.1c1.3,3.5-0.9,6.8-2,3.6c-0.3-0.7-0.5-0.6-1-0.2l-4.9,3.5l-0.1,0.1c0.5,2.7-2.1,5-3.9,4.9
	c-1.5-0.1-2.2-1.9-1.8-4.2c0-0.2-0.1-0.4-0.2-0.4c-0.1,0-0.2,0-0.3,0.1c-1.5,1.3-4.3,2.9-6.1,0.3c-0.9-1.2,0.8-3.3,1.7-4.2
	c0.1-0.2,0.1-0.5-0.1-0.6c0,0-0.1-0.1-0.1-0.1c-1.4-0.2-4.1-0.8-3-2.2c1.1-1.4,3-1.1,4.4-1c3,0.2,5.8,1.5,7.8,3.7c0,0,0.1,0,0.1,0
	c1.5-0.9,2.9-2,4.2-3.2c1.3-1.5,3.2-2.6,3.3-9.5c0.1-3.3-2.9-5.9-4.6-8.5s-2.7-4.7-1.5-8.9c0,0,0-0.1,0.1-0.1c0.2,0,1.1-0.1,3.9-0.1
	h0.1c2.2,2.5,4.9,4.5,7.9,5.9c0,0,0.1,0,0.1,0c0,0,0,0,0,0C174.4,97.6,173.9,104.4,181.1,104.4 M189,87.9c2.8,1.8,8,1.5,13,0.1
	c0.1,0,0.1,0,0.1,0.1c0.7,1.6,1.2,3.2,1.5,4.9c-0.5-0.3-1-0.5-1.5-0.7c-0.5-0.2-1.1-0.4-1.6-0.5c-0.5-0.1-1.1-0.2-1.7-0.2
	c-0.1,0-0.3,0.1-0.3,0.2s0.1,0.3,0.2,0.4l0,0c0.5,0.1,1,0.3,1.5,0.5c0.5,0.2,0.9,0.5,1.3,0.7c0.4,0.3,0.8,0.6,1.2,0.9
	c0.4,0.3,0.7,0.7,1.1,1l0,0c0.1,1,0.1,2,0.1,3c-0.1-0.1-0.3-0.2-0.4-0.3c-0.5-0.3-1-0.5-1.5-0.7c-0.5-0.2-1.1-0.4-1.6-0.5
	c-0.5-0.1-1.1-0.2-1.7-0.2c-0.1,0-0.3,0.1-0.3,0.2c0,0.2,0,0.3,0.2,0.4l0,0c0.5,0.2,1,0.3,1.5,0.5c0.5,0.2,0.9,0.4,1.3,0.7
	c0.4,0.3,0.8,0.6,1.2,0.9c0.4,0.3,0.7,0.7,1.1,0.9c-0.3,2.3-0.8,4.6-1.5,6.8l0,0c-0.1,0.2-0.1,0.4-0.3,0.6c3.1,1.7,3.9,6,1.5,6.5
	c-0.7,0.1-1.4,0-1.9-0.4c-0.2-0.1-0.4-0.1-0.5,0.2c-0.3,1.3-1.1,3.7-2.9,3.7c-1.4,0-1.9-1.1-1.9-2.2c0-0.2-0.1-0.3-0.3-0.3
	c-0.1,0-0.2,0-0.3,0.1c-0.9,1.1-1.7,1.5-2.5,1c-0.8-0.5-1.1-1.5-0.7-2.4c1.1-2.2,4.1-3,5.4-4.7l0,0c1.5-2.7-1-8.3-2.9-12.2
	c-0.2-0.4-0.6-0.6-1.1-0.5c-3.9,1.1-8,1.2-12,0.5c-7.5-1.5-11.7-4.3-14.1-7.5c0,0,0-0.1-0.1-0.1c-0.1-0.2-0.3-0.4-0.5-0.7l0,0
	c-0.7-0.9-1.1-1.7-1.5-2.3c-0.1-0.1-0.2-0.2-0.3-0.2c-0.7-0.1-0.3,1.9-0.2,2.5c0,0.1,0,0.1-0.1,0.1c-1.8,0.2-3.5,0.2-5.3,0.1
	c0,0-0.1,0-0.1,0.1c0,0,0,0,0,0c-2.9,3.6-3.8,6.1-11.9,7.6c-1.1,0.2-1.1,0.9-0.5,1.3c0.8,0.7,1.2,1.7,1.3,2.8
	c0.1,0.6-0.4,1.4-2.9,3.1c-0.1-0.1-0.2-0.3-0.2-0.5c-0.2-0.5-0.5-0.9-0.9-1.3c-0.3-0.4-0.7-0.7-1.1-1c-0.4-0.3-0.8-0.5-1.3-0.7
	c-0.2-0.1-0.4,0-0.5,0.1c-0.1,0.2-0.1,0.5,0.1,0.7h0.1c0.3,0.2,0.6,0.5,0.9,0.8c0.2,0.3,0.5,0.7,0.7,1c0.2,0.3,0.3,0.7,0.4,1.1
	c0.1,0.3,0.1,0.6,0.1,0.9c-1,0.6-2,1.2-3,1.7c-0.1-0.3-0.1-0.5-0.2-0.7c-0.2-0.5-0.5-0.9-0.7-1.4c-0.3-0.4-0.6-0.8-1-1.1
	c-0.4-0.3-0.8-0.6-1.2-0.8c-0.2-0.1-0.4,0-0.5,0.1c-0.1,0.2-0.1,0.5,0.1,0.7l0.1,0.1c0.3,0.3,0.5,0.6,0.8,0.9
	c0.3,0.3,0.4,0.7,0.6,1.1c0.1,0.3,0.2,0.7,0.3,1.1c0.1,0.3,0.1,0.6,0,0.9c-3.7,1.3-6.1,0.7-7.3,0l0,0c-0.3-0.2-0.6-0.4-0.9-0.6
	c-0.3-0.2-0.7-0.1-0.9,0.2c-0.2,0.3-0.2,0.6,0,0.9c0.1,0.2,0.3,0.5,0.5,0.8c0.2,0.3,0.3,0.7,0.3,1.1c0,1.3-1.1,1.7-2.5,1.7
	c-1.4,0-2.5-0.4-2.5-1.7v-0.7c0-0.3-0.3-0.7-0.6-0.6c-0.3,0.1-0.5,0.2-0.7,0.5l-0.4,0.7l0,0c-0.1,0.1-2.3,5.1-4.5,4
	c-1.5-0.7-0.8-2.5,0-3.9c0.1-0.2,0.1-0.5-0.1-0.6c-0.1-0.1-0.3-0.1-0.4,0c-0.7,0.3-1.5,0.3-2.2,0c-1.2-0.6-1.8-2-1.4-3.3
	c0.5-1,1.2-1.9,2.1-2.7c0.2-0.2,0.2-0.5,0-0.7c-0.5-0.5-0.7-0.9-0.5-1.5s1.1-1,2.5-0.8c1.6,0.3,2.5,2.1,3,4.1c0.2,0.7,0.8,1.1,1.5,1
	l0,0c5.5-1.3,9.5-5.3,12.7-7.9c0.1,0.1,0.2,0.2,0.3,0.3l0.9,0.7l0.4-0.1c8.1-2.3,15.7-10.4,17.5-15.2c0.6-1.5,1-3.2,1.1-4.8
	c11.3-0.3,11.1-0.7,16.2-1.5c3.9-0.7,9.2,1.6,11.7,4.2C187,83,187,86.5,189,87.9 M208,75.2c-0.2,2.9-1.6,4.9-4.7,5.8
	s-8.9,2.3-14.9,1.3c-0.4-0.1-0.9-1.4-1.1-1.9c0-0.1,0-0.1,0.1-0.1c5.5,0.9,13.5,0.1,16-1.5c3.3-2.1,2.2-7.9-2.1-9.5
	c-6.4-2.5-20,0.8-29.2,0.9c-3.4,0.1-7.1,0-11.1-3.5c-2.5-2.6-2.9-6.6-1-9.6l0,0c1.8-2.5,4.8-3.7,7.9-3.3c7.6,0.6,9.8-4.4,16.3-5.8
	c6.3-1.3,9.1,0.5,9.9,1.2c0.1,0.1,0,0.2-0.1,0.2c-3.4-0.5-6.8,0-9.9,1.4c-1.8,0.8-3.4,1.9-4.9,3.1c-0.1,0.1-0.1,0.1,0.1,0.2
	c3.3,0.8,3.7,1.5,7.3,1.8c8.5,0.7,10.6-3,15-2.1c2.1,0.4,4,1.5,5.3,3.3c0,0,0,0.1,0,0.1c0,0-0.1,0-0.1,0
	c-13.2-3.1-11.9,2.6-18.9,3.1c-4.3,0.3-10.5-3.3-12.3-3.1c-0.1,0-0.1,0.1-0.1,0.1c-0.1,0.7-0.7,5.7-4.7,4.6c-0.1,0-0.1-0.1-0.1-0.2
	c1.5-1.5,0.9-3.7-1.3-4.4c-1.6-0.4-3.2-0.3-4.7,0.3c-2.3,1.1-3.3,3.8-2.2,6.1c0.1,0.2,0.2,0.3,0.3,0.5c2.2,3.3,5.7,4,10.5,3.7
	c5.1-0.3,8.4-0.7,15.5-1.7c2.1-0.3,6.1-0.7,10-0.9c-0.3,0.4-0.5,0.8-0.7,1.3c-0.1,0.1-0.1,0.2,0,0.3c0.1,0.1,0.3,0.2,0.4,0.1l0,0
	l1.2-0.8l0.6-0.4c0.2-0.1,0.4-0.3,0.5-0.5v-0.1c0.8,0,1.5,0,2.3,0.1l-0.1,0.1c-0.3,0.5-0.6,1-0.9,1.5c-0.1,0.1-0.1,0.2,0,0.3
	c0.1,0.1,0.3,0.2,0.4,0.1l0,0c0.4-0.3,0.8-0.6,1.3-0.9l0.7-0.5c0.2-0.1,0.4-0.3,0.6-0.5c1,0,1.9,0.3,2.7,0.9l-2.8,2.3
	C204.8,68.7,208.3,71.1,208,75.2"/>
<rect x="61" y="19" class="st1" width="200" height="200"/>
</svg>
